<?xml version="1.0"?>
<svg xmlns="http://www.w3.org/2000/svg" xmlns:xlink="http://www.w3.org/1999/xlink" version="1.1" viewBox="0 0 252 252" width="64px" height="64px"><g fill="none" fill-rule="nonzero" stroke="none" stroke-width="1" stroke-linecap="butt" stroke-linejoin="miter" stroke-miterlimit="10" stroke-dasharray="" stroke-dashoffset="0" font-family="none" font-weight="none" font-size="none" text-anchor="none" style="mix-blend-mode: normal"><path d="M0,252v-252h252v252z" fill="none"/><g id="&#x421;&#x43B;&#x43E;&#x439;_1" fill="#d35400"><path d="M46.07663,172.07662l25.97175,25.97175c2.47275,2.47275 0.72056,6.70162 -2.77594,6.70162h-22.02244c-4.35094,0 -7.875,-3.52406 -7.875,-7.875v-22.02244c0,-3.4965 4.22888,-5.24869 6.70163,-2.77594z"/><path d="M216.5625,78.75h-3.9375v-23.625c0,-6.51262 -5.29988,-11.8125 -11.8125,-11.8125v-3.9375c0,-4.34306 -3.53194,-7.875 -7.875,-7.875h-133.875c-4.34306,0 -7.875,3.53194 -7.875,7.875v3.9375c-6.51262,0 -11.8125,5.29988 -11.8125,11.8125v23.625h-3.9375c-6.51262,0 -11.8125,5.29988 -11.8125,11.8125v23.625v3.9375v82.6875c0,10.85569 8.83181,19.6875 19.6875,19.6875h165.375c10.85569,0 19.6875,-8.83181 19.6875,-19.6875v-78.75v-7.875v-23.625c0,-6.51262 -5.29987,-11.8125 -11.8125,-11.8125zM216.5625,86.625c2.1735,0 3.9375,1.764 3.9375,3.9375v7.97737c-2.2995,-1.74038 -4.94944,-3.04369 -7.875,-3.64219v-8.27269zM59.0625,39.375h133.875v3.9375h-133.875zM51.1875,51.1875h149.625c2.1735,0 3.9375,1.764 3.9375,3.9375v39.375h-39.09544c-3.96506,0 -7.63875,1.96875 -9.83194,5.26444l-11.07619,16.60837c-0.73237,1.09462 -1.953,1.75219 -3.276,1.75219h-30.93694c-1.323,0 -2.54362,-0.65756 -3.27994,-1.75613l-11.07619,-16.6005c-2.19319,-3.29962 -5.86688,-5.26837 -9.83194,-5.26837h-39.09544v-39.375c0,-2.1735 1.764,-3.9375 3.9375,-3.9375zM35.4375,86.625h3.9375v8.27269c-2.92556,0.5985 -5.5755,1.89787 -7.875,3.64219v-7.97737c0,-2.1735 1.764,-3.9375 3.9375,-3.9375zM220.5,200.8125c0,6.51262 -5.29988,11.8125 -11.8125,11.8125h-165.375c-6.51262,0 -11.8125,-5.29988 -11.8125,-11.8125v-82.6875v-3.9375c0,-6.51262 5.29988,-11.8125 11.8125,-11.8125h43.03294c1.323,0 2.54363,0.65756 3.27994,1.75613l11.07619,16.6005c2.18925,3.29962 5.86294,5.26837 9.828,5.26837h30.93694c3.96506,0 7.63875,-1.96875 9.83194,-5.26444l11.07619,-16.60837c0.73631,-1.09462 1.95694,-1.75219 3.27994,-1.75219h43.03294c6.51262,0 11.8125,5.29988 11.8125,11.8125v7.875z"/><rect x="21" y="17" transform="scale(3.9375,3.9375)" width="24" height="2"/><rect x="44" y="50" transform="scale(3.9375,3.9375)" width="10" height="2"/><rect x="44" y="46" transform="scale(3.9375,3.9375)" width="10" height="2"/><rect x="27" y="21" transform="scale(3.9375,3.9375)" width="10" height="2"/><rect x="29" y="25" transform="scale(3.9375,3.9375)" width="6" height="2"/></g><g fill="#d35400"><path d="M108.97,161.58v0.62v0c0,6.92 -1.57,12.46 -4.71,16.62v0v0c-3.14,4.16667 -7.38,6.25 -12.72,6.25v0v0c-4.54,0 -8.20667,-1.57667 -11,-4.73v0v21.17h-11.99v-62.18h11.12l0.42,4.4v0c2.9,-3.48667 6.69,-5.23 11.37,-5.23v0v0c5.53333,0 9.83333,2.05 12.9,6.15v0v0c3.07333,4.09333 4.61,9.73667 4.61,16.93zM96.98,161.33v0v0c0,-4.18 -0.74,-7.40333 -2.22,-9.67v0v0c-1.48,-2.26667 -3.63333,-3.4 -6.46,-3.4v0v0c-3.76,0 -6.34667,1.43667 -7.76,4.31v0v18.39v0c1.46667,2.96 4.08333,4.44 7.85,4.44v0v0c5.72667,0 8.59,-4.69 8.59,-14.07zM129.06,120.49v63.75h-12.04v-63.75zM138.69,139.33h11.29l0.37,5.19v0c3.21333,-4.01333 7.51667,-6.02 12.91,-6.02v0v0c4.76,0 8.3,1.39667 10.62,4.19v0v0c2.32667,2.8 3.51667,6.98 3.57,12.54v0v29.01h-11.99v-28.72v0c0,-2.54667 -0.55333,-4.39333 -1.66,-5.54v0v0c-1.10667,-1.14667 -2.94667,-1.72 -5.52,-1.72v0v0c-3.38,0 -5.91333,1.43667 -7.6,4.31v0v31.67h-11.99z"/></g></g></svg>
