<?xml version="1.0"?>
<svg xmlns="http://www.w3.org/2000/svg" xmlns:xlink="http://www.w3.org/1999/xlink" version="1.1" viewBox="0 0 252 252" width="64px" height="64px"><g fill="none" fill-rule="nonzero" stroke="none" stroke-width="1" stroke-linecap="butt" stroke-linejoin="miter" stroke-miterlimit="10" stroke-dasharray="" stroke-dashoffset="0" font-family="none" font-weight="none" font-size="none" text-anchor="none" style="mix-blend-mode: normal"><path d="M0,252v-252h252v252z" fill="none"/><g id="&#x421;&#x43B;&#x43E;&#x439;_1" fill="#8e44ad"><path d="M46.07663,172.07662l25.97175,25.97175c2.47275,2.47275 0.72056,6.70162 -2.77594,6.70162h-22.02244c-4.35094,0 -7.875,-3.52406 -7.875,-7.875v-22.02244c0,-3.4965 4.22888,-5.24869 6.70163,-2.77594z"/><path d="M216.5625,78.75h-3.9375v-23.625c0,-6.51262 -5.29988,-11.8125 -11.8125,-11.8125v-3.9375c0,-4.34306 -3.53194,-7.875 -7.875,-7.875h-133.875c-4.34306,0 -7.875,3.53194 -7.875,7.875v3.9375c-6.51262,0 -11.8125,5.29988 -11.8125,11.8125v23.625h-3.9375c-6.51262,0 -11.8125,5.29988 -11.8125,11.8125v23.625v3.9375v82.6875c0,10.85569 8.83181,19.6875 19.6875,19.6875h165.375c10.85569,0 19.6875,-8.83181 19.6875,-19.6875v-78.75v-7.875v-23.625c0,-6.51262 -5.29987,-11.8125 -11.8125,-11.8125zM216.5625,86.625c2.1735,0 3.9375,1.764 3.9375,3.9375v7.97737c-2.2995,-1.74038 -4.94944,-3.04369 -7.875,-3.64219v-8.27269zM59.0625,39.375h133.875v3.9375h-133.875zM51.1875,51.1875h149.625c2.1735,0 3.9375,1.764 3.9375,3.9375v39.375h-39.09544c-3.96506,0 -7.63875,1.96875 -9.83194,5.26444l-11.07619,16.60837c-0.73237,1.09462 -1.953,1.75219 -3.276,1.75219h-30.93694c-1.323,0 -2.54362,-0.65756 -3.27994,-1.75613l-11.07619,-16.6005c-2.19319,-3.29962 -5.86688,-5.26837 -9.83194,-5.26837h-39.09544v-39.375c0,-2.1735 1.764,-3.9375 3.9375,-3.9375zM35.4375,86.625h3.9375v8.27269c-2.92556,0.5985 -5.5755,1.89787 -7.875,3.64219v-7.97737c0,-2.1735 1.764,-3.9375 3.9375,-3.9375zM220.5,200.8125c0,6.51262 -5.29988,11.8125 -11.8125,11.8125h-165.375c-6.51262,0 -11.8125,-5.29988 -11.8125,-11.8125v-82.6875v-3.9375c0,-6.51262 5.29988,-11.8125 11.8125,-11.8125h43.03294c1.323,0 2.54363,0.65756 3.27994,1.75613l11.07619,16.6005c2.18925,3.29962 5.86294,5.26837 9.828,5.26837h30.93694c3.96506,0 7.63875,-1.96875 9.83194,-5.26444l11.07619,-16.60837c0.73631,-1.09462 1.95694,-1.75219 3.27994,-1.75219h43.03294c6.51262,0 11.8125,5.29988 11.8125,11.8125v7.875z"/><rect x="21" y="17" transform="scale(3.9375,3.9375)" width="24" height="2"/><rect x="44" y="50" transform="scale(3.9375,3.9375)" width="10" height="2"/><rect x="44" y="46" transform="scale(3.9375,3.9375)" width="10" height="2"/><rect x="27" y="21" transform="scale(3.9375,3.9375)" width="10" height="2"/><rect x="29" y="25" transform="scale(3.9375,3.9375)" width="6" height="2"/></g><g fill="#8e44ad"><path d="M65.705,129.2l7.82,14.2l8,-14.2h13.58l-13.53,23.29l14.1,24.26h-13.62l-8.48,-14.94l-8.44,14.94h-13.67l14.11,-24.26l-13.49,-23.29zM101.215,129.2h11.91l0.39,5.32v0c3.37333,-4.13333 7.93,-6.2 13.67,-6.2v0v0c6.12667,0 10.33,2.41667 12.61,7.25v0v0c3.34,-4.83333 8.10333,-7.25 14.29,-7.25v0v0c5.15333,0 8.99,1.50333 11.51,4.51v0v0c2.52,3 3.78,7.51667 3.78,13.55v0v30.37h-12.75v-30.32v0c0,-2.7 -0.52667,-4.67 -1.58,-5.91v0v0c-1.05333,-1.24667 -2.91333,-1.87 -5.58,-1.87v0v0c-3.80667,0 -6.44333,1.81667 -7.91,5.45v0l0.04,32.65h-12.7v-30.28v0c0,-2.75333 -0.54,-4.74333 -1.62,-5.97v0v0c-1.08667,-1.23333 -2.93333,-1.85 -5.54,-1.85v0v0c-3.6,0 -6.20667,1.49333 -7.82,4.48v0v33.62h-12.7zM192.535,109.25v67.5h-12.75v-67.5z"/></g></g></svg>
