<?xml version="1.0"?>
<svg xmlns="http://www.w3.org/2000/svg" xmlns:xlink="http://www.w3.org/1999/xlink" version="1.1" viewBox="0 0 252 252" width="64px" height="64px"><g fill="none" fill-rule="nonzero" stroke="none" stroke-width="1" stroke-linecap="butt" stroke-linejoin="miter" stroke-miterlimit="10" stroke-dasharray="" stroke-dashoffset="0" font-family="none" font-weight="none" font-size="none" text-anchor="none" style="mix-blend-mode: normal"><path d="M0,252v-252h252v252z" fill="none"/><g id="&#x421;&#x43B;&#x43E;&#x439;_1" fill="#800000"><path d="M46.07663,172.07662l25.97175,25.97175c2.47275,2.47275 0.72056,6.70162 -2.77594,6.70162h-22.02244c-4.35094,0 -7.875,-3.52406 -7.875,-7.875v-22.02244c0,-3.4965 4.22888,-5.24869 6.70163,-2.77594z"/><path d="M216.5625,78.75h-3.9375v-23.625c0,-6.51262 -5.29988,-11.8125 -11.8125,-11.8125v-3.9375c0,-4.34306 -3.53194,-7.875 -7.875,-7.875h-133.875c-4.34306,0 -7.875,3.53194 -7.875,7.875v3.9375c-6.51262,0 -11.8125,5.29988 -11.8125,11.8125v23.625h-3.9375c-6.51262,0 -11.8125,5.29988 -11.8125,11.8125v23.625v3.9375v82.6875c0,10.85569 8.83181,19.6875 19.6875,19.6875h165.375c10.85569,0 19.6875,-8.83181 19.6875,-19.6875v-78.75v-7.875v-23.625c0,-6.51262 -5.29987,-11.8125 -11.8125,-11.8125zM216.5625,86.625c2.1735,0 3.9375,1.764 3.9375,3.9375v7.97737c-2.2995,-1.74038 -4.94944,-3.04369 -7.875,-3.64219v-8.27269zM59.0625,39.375h133.875v3.9375h-133.875zM51.1875,51.1875h149.625c2.1735,0 3.9375,1.764 3.9375,3.9375v39.375h-39.09544c-3.96506,0 -7.63875,1.96875 -9.83194,5.26444l-11.07619,16.60837c-0.73237,1.09462 -1.953,1.75219 -3.276,1.75219h-30.93694c-1.323,0 -2.54362,-0.65756 -3.27994,-1.75613l-11.07619,-16.6005c-2.19319,-3.29962 -5.86688,-5.26837 -9.83194,-5.26837h-39.09544v-39.375c0,-2.1735 1.764,-3.9375 3.9375,-3.9375zM35.4375,86.625h3.9375v8.27269c-2.92556,0.5985 -5.5755,1.89787 -7.875,3.64219v-7.97737c0,-2.1735 1.764,-3.9375 3.9375,-3.9375zM220.5,200.8125c0,6.51262 -5.29988,11.8125 -11.8125,11.8125h-165.375c-6.51262,0 -11.8125,-5.29988 -11.8125,-11.8125v-82.6875v-3.9375c0,-6.51262 5.29988,-11.8125 11.8125,-11.8125h43.03294c1.323,0 2.54363,0.65756 3.27994,1.75613l11.07619,16.6005c2.18925,3.29962 5.86294,5.26837 9.828,5.26837h30.93694c3.96506,0 7.63875,-1.96875 9.83194,-5.26444l11.07619,-16.60837c0.73631,-1.09462 1.95694,-1.75219 3.27994,-1.75219h43.03294c6.51262,0 11.8125,5.29988 11.8125,11.8125v7.875z"/><rect x="21" y="17" transform="scale(3.9375,3.9375)" width="24" height="2"/><rect x="44" y="50" transform="scale(3.9375,3.9375)" width="10" height="2"/><rect x="44" y="46" transform="scale(3.9375,3.9375)" width="10" height="2"/><rect x="27" y="21" transform="scale(3.9375,3.9375)" width="10" height="2"/><rect x="29" y="25" transform="scale(3.9375,3.9375)" width="6" height="2"/></g><g fill="#800000"><path d="M98.57,152.575v0.62v0c0,6.92 -1.57,12.46 -4.71,16.62v0v0c-3.14,4.16667 -7.38,6.25 -12.72,6.25v0v0c-4.54,0 -8.20667,-1.57667 -11,-4.73v0v21.17h-11.99v-62.18h11.12l0.42,4.4v0c2.9,-3.48667 6.69,-5.23 11.37,-5.23v0v0c5.53333,0 9.83333,2.05 12.9,6.15v0v0c3.07333,4.09333 4.61,9.73667 4.61,16.93zM86.58,152.325v0v0c0,-4.18 -0.74,-7.40333 -2.22,-9.67v0v0c-1.48,-2.26667 -3.63333,-3.4 -6.46,-3.4v0v0c-3.76,0 -6.34667,1.43667 -7.76,4.31v0v18.39v0c1.46667,2.96 4.08333,4.44 7.85,4.44v0v0c5.72667,0 8.59,-4.69 8.59,-14.07zM130.32,162.825v0v0c0,-1.46667 -0.72667,-2.62333 -2.18,-3.47v0v0c-1.45333,-0.84 -3.78333,-1.59333 -6.99,-2.26v0v0c-10.68,-2.24 -16.02,-6.77667 -16.02,-13.61v0v0c0,-3.98667 1.65333,-7.31333 4.96,-9.98v0v0c3.30667,-2.67333 7.63,-4.01 12.97,-4.01v0v0c5.7,0 10.25667,1.34333 13.67,4.03v0v0c3.42,2.68 5.13,6.16667 5.13,10.46v0h-11.99v0c0,-1.72 -0.55333,-3.14 -1.66,-4.26v0v0c-1.10667,-1.12 -2.83667,-1.68 -5.19,-1.68v0v0c-2.02,0 -3.58333,0.45667 -4.69,1.37v0v0c-1.10667,0.91333 -1.66,2.07667 -1.66,3.49v0v0c0,1.32667 0.63,2.4 1.89,3.22v0v0c1.25333,0.81333 3.37667,1.51667 6.37,2.11v0v0c2.98667,0.59333 5.50333,1.26333 7.55,2.01v0v0c6.33333,2.32667 9.5,6.35333 9.5,12.08v0v0c0,4.09333 -1.75667,7.40667 -5.27,9.94v0v0c-3.51333,2.53333 -8.05,3.8 -13.61,3.8v0v0c-3.76,0 -7.1,-0.67 -10.02,-2.01v0v0c-2.92,-1.34667 -5.21,-3.18667 -6.87,-5.52v0v0c-1.66,-2.34 -2.49,-4.86667 -2.49,-7.58v0h11.37v0c0.11333,2.13333 0.90333,3.76667 2.37,4.9v0v0c1.46667,1.13333 3.43,1.7 5.89,1.7v0v0c2.29333,0 4.03,-0.43667 5.21,-1.31v0v0c1.17333,-0.86667 1.76,-2.00667 1.76,-3.42zM187.85,175.235h-12.12v0c-0.55333,-1.08 -0.95667,-2.42333 -1.21,-4.03v0v0c-2.9,3.24 -6.67667,4.86 -11.33,4.86v0v0c-4.4,0 -8.04333,-1.27333 -10.93,-3.82v0v0c-2.89333,-2.54667 -4.34,-5.75667 -4.34,-9.63v0v0c0,-4.76 1.76333,-8.41 5.29,-10.95v0v0c3.52667,-2.54667 8.62667,-3.83333 15.3,-3.86v0h5.52v-2.58v0c0,-2.07333 -0.53333,-3.73333 -1.6,-4.98v0v0c-1.06667,-1.24667 -2.74667,-1.87 -5.04,-1.87v0v0c-2.02,0 -3.60667,0.48667 -4.76,1.46v0v0c-1.14667,0.96667 -1.72,2.29333 -1.72,3.98v0h-11.99v0c0,-2.6 0.8,-5.00667 2.4,-7.22v0v0c1.60667,-2.21333 3.87667,-3.95 6.81,-5.21v0v0c2.93333,-1.26 6.22667,-1.89 9.88,-1.89v0v0c5.53333,0 9.92667,1.39 13.18,4.17v0v0c3.24667,2.78 4.87,6.69 4.87,11.73v0v19.46v0c0.02667,4.26667 0.62333,7.49 1.79,9.67v0zM165.81,166.895v0v0c1.76667,0 3.4,-0.39667 4.9,-1.19v0v0c1.49333,-0.78667 2.6,-1.84333 3.32,-3.17v0v-7.72h-4.49v0c-6,0 -9.19333,2.07667 -9.58,6.23v0l-0.05,0.7v0c0,1.49333 0.52667,2.72667 1.58,3.7v0v0c1.05333,0.96667 2.49333,1.45 4.32,1.45z"/></g></g></svg>
