<?xml version="1.0" encoding="UTF-8"?><svg xmlns="http://www.w3.org/2000/svg" viewBox="0 0 2000 416.1"><defs><style>.d{fill:#fb24a9;}.e{fill:#00eac3;}.f{fill:#0074e8;}.g{fill:#fff;}.h{fill:#ffb600;}.i{fill:#ff8500;}.j{fill:#a933fb;}.k{fill:#1eacfc;}</style></defs><g id="a"/><g id="b"><g id="c"><g><g><path class="j" d="M61.93,.25c-12.42,1.46-25.07,7.36-37.71,17.58l-.2,.16-.26-.04c-1.64-.27-2.98-.27-4.68-.27C8.05,18.49-.52,28.29,.03,39.53c.81,11.08,10.63,19.66,21.84,19.1,9.22-.52,17.14-7.65,18.83-16.93l.04-.19,.14-.13c8.06-7.35,16.31-10.96,25.12-10.96,1.02,0,2.06,.05,3.1,.15,11.81,1.37,24.31,8.96,38.25,23.19,13.7,13.99,27.68,32.85,40.75,51.14l19.16,27.13c8.08,11.43,16.43,23.25,24.89,34.32,7.48,9.41,17.49,21.3,28.51,29.64,11.71,8.86,23.15,12.31,34.93,10.55l3.78-.67-2.16-2.59c-22.26-23.39-40.24-49.97-53.37-69.38l-22.42-32.57c-15.97-23.08-31.06-44.88-46.85-62.23C111.04,12.67,90.13,.25,68.76,0c-3.28,0-5.57,.09-6.83,.25Z"/><path class="k" d="M41.55,115.08l-.02,.2c-.83,10.27-8.87,18.31-19.1,19.11-.34,.02-.68,.02-1.02,.02-10.8,0-20.04-8.39-20.83-19.12-.55-11.24,8.02-21.04,19.07-21.85h1.64L54.59,59.32c4.84-4.98,11.55-7.78,18.44-7.54,6.7,.18,12.8,3.04,17.18,8.05l1.13,1.58-49.79,53.66Z"/><path class="h" d="M21.48,167.56l-.43-.02h0c-11.28,0-20.46,9.18-20.46,20.47s9.18,20.47,20.47,20.47c.94,0,1.84-.13,2.78-.27l.4-.06c9.42-1.48,16.46-9.14,17.14-18.69v-.2L125.85,97.87l-18.38-22.11L21.48,167.56Z"/><path class="f" d="M329.86,221.15c15.61-1.75,31.01-10.32,47.21-26.25l.17-.16h2.48c11.01-.83,19.33-10.62,18.51-21.83-.81-11.09-10.64-19.69-21.85-19.11-10.34,.82-18.26,8.85-18.82,19.1v.2l-.14,.15c-11.45,13.05-22.92,18.8-35.01,17.59-11.8-1.37-24.31-8.96-38.24-23.19-13.71-14-27.69-32.86-40.75-51.15l-19.22-27.21c-8.06-11.4-16.39-23.2-24.83-34.24-7.49-9.41-17.5-21.3-28.52-29.64-11.71-8.86-23.14-12.31-34.93-10.55l-3.61,.43,2.53,2.53c22.27,23.39,40.26,49.99,53.39,69.4l18.52,26.94c18.76,27.83,34.52,50.06,50.47,68.14,23.52,26.42,44.43,38.84,65.81,39.09,3.38,0,5.18-.09,6.83-.25Z"/><path class="d" d="M378.08,123.17h1.08c5.51-.26,10.53-2.63,14.11-6.67,3.59-4.05,5.35-9.33,4.96-14.88-.79-10.75-10.03-19.14-20.83-19.14-.34,0-.67,0-1.01,.02-10.51,.81-18.55,9.08-19.11,19.66v.22l-56.52,60.65,1.1,1.32c4.41,5.06,10.61,7.93,17.45,8.07,.17,0,.34,0,.5,0,6.7,0,13.12-2.73,17.66-7.54l40.59-41.72Z"/><path class="i" d="M265.99,126.3l18.62,22.15,95.13-101.58,.2-.02c11.07-1.11,19.1-10.7,18.29-21.84-.81-11.08-10.62-19.71-21.85-19.11-11.25,.82-19.65,10.3-19.1,21.57v.24l-91.3,98.59Z"/></g><g><path class="g" d="M481.04,184.79l22.35-24.19c14.73,15.52,35.24,24.46,58.12,24.46,28.14,0,40.76-11.04,40.76-28.14,0-18.67-17.62-23.67-47.86-30.77-33.66-8.15-66.27-19.72-66.27-58.91,0-34.97,26.83-60.22,74.69-60.22,31.3,0,55.23,10.26,73.37,28.14l-20.78,24.46c-13.94-14.2-31.56-22.88-53.12-22.88-24.46,0-36.56,11.57-36.56,26.82,0,18.41,16.83,22.35,46.55,29.72,35.5,8.94,67.32,19.99,67.32,59.96,0,36.29-27.87,61.54-78.37,61.54-34.71,0-60.75-10.52-80.21-29.98Z"/><path class="g" d="M777.48,70.66l-57.59,150.69c-11.04,28.93-24.19,41.55-50.23,41.55-8.42,0-14.73-1.31-19.46-2.89v-25.77c3.42,.79,7.37,1.58,12.36,1.58,12.62,0,19.99-4.73,24.98-20.51l-55.22-144.64h37.61l35.5,104.4h.53l35.5-104.4h36.03Z"/><path class="g" d="M825.33,89.59c8.94-13.94,22.62-21.83,41.29-21.83s34.19,8.42,41.55,22.62c9.99-15.25,25.51-22.62,44.44-22.62,28.93,0,48.13,18.15,48.13,45.5v98.62h-35.5V119.04c0-13.15-7.62-23.4-23.67-23.4-17.36,0-28.14,12.1-28.14,28.4v87.84h-35.5V119.04c0-13.15-7.89-23.4-23.41-23.4-17.36,0-28.4,12.1-28.4,28.4v87.84h-35.5V70.66h33.4l.79,18.93h.53Z"/><path class="g" d="M1055.32,193.73h-.52v66.27h-35.5V70.66h33.4l.79,21.04h.52c10.78-14.99,27.09-23.93,45.76-23.93,38.13,0,60.75,31.56,60.75,72.85s-23.67,74.16-61.8,74.16c-18.41,0-32.87-7.62-43.39-21.04Zm69.17-52.6c0-23.93-10.78-45.49-35.5-45.49-23.4,0-35.24,20.51-35.24,46.28s12.36,44.97,34.98,44.97c23.93,0,35.77-20.25,35.77-45.76Z"/><path class="g" d="M1179.08,9.91h35.5V89.85h.52c8.94-13.94,23.67-22.09,42.6-22.09,29.19,0,48.13,19.2,48.13,48.13v95.99h-35.5V121.68c0-14.47-8.42-26.03-25.25-26.03-18.93,0-30.51,13.41-30.51,31.29v84.94h-35.5V9.91Z"/><path class="g" d="M1324.75,141.4c0-42.08,25.77-73.63,72.59-73.63s72.58,31.56,72.58,73.63-25.77,73.37-72.58,73.37-72.59-31.56-72.59-73.37Zm36.03,0c0,26.03,12.1,46.02,36.56,46.02s36.55-19.99,36.55-46.02-12.1-46.28-36.55-46.28-36.56,19.99-36.56,46.28Z"/><path class="g" d="M1488.48,70.66h33.4l.79,19.99h.52c8.68-14.2,23.93-22.88,43.13-22.88,29.72,0,48.91,19.46,48.91,48.65v95.46h-35.5V121.68c0-14.47-8.68-26.03-25.25-26.03-18.93,0-30.51,13.41-30.51,31.29v84.94h-35.5V70.66Z"/><path class="g" d="M1767.3,70.66l-57.59,150.69c-11.04,28.93-24.19,41.55-50.23,41.55-8.42,0-14.73-1.31-19.46-2.89v-25.77c3.42,.79,7.37,1.58,12.36,1.58,12.62,0,19.99-4.73,24.98-20.51l-55.22-144.64h37.61l35.5,104.4h.53l35.5-104.4h36.03Z"/></g><g><path class="e" d="M1893.52,162.44h-84.15l-17.62,49.44h-38.13L1829.62,9.91h44.97l76,201.97h-39.45l-17.62-49.44Zm-10.78-29.98l-31.03-86.78h-.53l-31.03,86.78h62.59Z"/><rect class="e" x="1962.66" y="9.91" width="37.34" height="201.97"/></g></g><g><path class="g" d="M526.73,362.8h-16.89v36.74h-21.7v-94.68h44.38c18.49,0,31.81,9.99,31.81,27.61,0,12.45-6.9,21.2-17.26,25.4l19.97,41.67h-23.79l-16.52-36.74Zm-16.89-16.52h20.22c6.78,0,12.45-3.95,12.45-12.33s-5.67-12.33-12.45-12.33h-20.22v24.66Z"/><path class="g" d="M583.07,399.54v-94.68h66.2v16.77h-44.63v21.82h38.71v16.64h-38.71v22.68h45.49v16.77h-67.06Z"/><path class="g" d="M695.99,399.54v-77.66h-30.08v-17.01h81.85v17.01h-30.08v77.66h-21.7Z"/><path class="g" d="M805.71,378.83h-36.86l-7.03,20.71h-21.82l34.52-94.68h26.13l34.64,94.68h-22.56l-7.03-20.71Zm-5.55-16.4l-12.7-37.85h-.25l-12.82,37.85h25.76Z"/><path class="g" d="M847.51,399.54v-94.68h21.7v94.68h-21.7Z"/><path class="g" d="M889.42,304.87h21.7v77.66h44.13v17.01h-65.83v-94.68Z"/><path class="g" d="M1019.36,292.21h16.64v123.89h-16.64v-123.89Z"/><path class="g" d="M1102.82,352.45c0-27.74,16.52-48.94,46.23-48.94,17.26,0,29.96,7.4,37.97,20.34l-15.66,10.23c-4.93-9.12-11.83-13.93-21.57-13.93-17.14,0-25.03,14.67-25.03,32.05s7.77,32.05,25.4,32.05c9.74,0,16.77-4.81,21.7-13.44l15.53,9.74c-8.14,12.7-20.34,20.34-38.21,20.34-29.71,0-46.35-20.46-46.35-48.45Z"/><path class="g" d="M1247.3,304.87c19.11,0,34.76,11.22,34.76,31.31s-15.29,31.93-35.13,31.93h-20.96v31.44h-21.7v-94.68h43.02Zm-2.09,46.47c8.14,0,14.92-4.56,14.92-14.79s-6.78-14.92-14.92-14.92h-19.23v29.71h19.23Z"/><path class="g" d="M1384.88,347.15v52.39h-18.98l-.49-9.74h-.25c-4.81,6.04-12.45,11.1-25.64,11.1-28.11,0-42.78-21.45-42.78-47.96s16.64-49.43,47.83-49.43c17.75,0,30.57,7.15,38.96,19.11l-15.41,10.72c-5.67-8.63-12.82-13.19-22.93-13.19-17.63,0-26.5,14.18-26.5,32.42s8.14,31.8,25.15,31.8c11.71,0,20.34-6.9,20.34-19.23v-1.6h-19.85v-16.4h40.56Z"/></g></g></g></svg>